<?xml version="1.0" encoding="UTF-8"?>
<!DOCTYPE svg PUBLIC "-//W3C//DTD SVG 1.1//EN" "http://www.w3.org/Graphics/SVG/1.1/DTD/svg11.dtd">
<svg version="1.1" xmlns="http://www.w3.org/2000/svg" xmlns:xlink="http://www.w3.org/1999/xlink" x="0" y="0" width="119.4" height="257.4" viewBox="0, 0, 119.4, 257.4">
  <g id="Layer_1">
    <g>
      <g>
        <path d="M64.3,34.7 C64.3,19.5 50.2,4.6 32.6,1.4 C15.1,-1.9 0.8,7.8 0.7,22.9 C0.7,38.1 14.8,53 32.4,56.2 C34.4,56.6 36.4,56.8 38.4,56.8 L40.6,63.3 L45.5,62.4 L43.5,56.6 C55.5,54.9 64.2,46.5 64.3,34.7 z" fill="#FFFFFF"/>
        <path d="M64.3,34.7 C64.3,19.5 50.2,4.6 32.6,1.4 C15.1,-1.9 0.8,7.8 0.7,22.9 C0.7,38.1 14.8,53 32.4,56.2 C34.4,56.6 36.4,56.8 38.4,56.8 L40.6,63.3 L45.5,62.4 L43.5,56.6 C55.5,54.9 64.2,46.5 64.3,34.7 z" fill-opacity="0" stroke="#000000" stroke-width="1.489" stroke-linecap="round" stroke-linejoin="round" stroke-miterlimit="10"/>
      </g>
      <g>
        <path d="M83.4,139.1 L83.4,139 L85.1,153.9 L71.5,154.1 L71.5,140.4 z" fill="#FFFFFF"/>
        <path d="M83.4,139.1 L83.4,139 L85.1,153.9 L71.5,154.1 L71.5,140.4 z" fill-opacity="0" stroke="#000000" stroke-width="2" stroke-linecap="round" stroke-linejoin="round" stroke-miterlimit="10"/>
      </g>
      <g>
        <path d="M109.4,255.7 C109.8,247.4 108.4,220.7 107.4,206.7 L114.7,204.9 C114.7,204.9 118.9,203.5 118.4,198.8 C115.3,186.1 113.1,160.9 108.4,155.6 L85.3,146.2 C76.6,158.6 70.6,146.2 70.6,146.2 C70.6,146.2 54.9,152.9 45.9,158.8 C45.1,164.3 44.9,177.7 44.6,205.2 L52.1,205.2 C51.8,212.5 48.3,249 48.2,256.4" fill="#CCE95D"/>
        <path d="M109.4,255.7 C109.8,247.4 108.4,220.7 107.4,206.7 L114.7,204.9 C114.7,204.9 118.9,203.5 118.4,198.8 C115.3,186.1 113.1,160.9 108.4,155.6 L85.3,146.2 C76.6,158.6 70.6,146.2 70.6,146.2 C70.6,146.2 54.9,152.9 45.9,158.8 C45.1,164.3 44.9,177.7 44.6,205.2 L52.1,205.2 C51.8,212.5 48.3,249 48.2,256.4" fill-opacity="0" stroke="#000000" stroke-width="2" stroke-linecap="round" stroke-linejoin="round"/>
      </g>
      <g>
        <path d="M76.9,151.7 L75.7,152.9 L74.4,153.8 L73.2,155 L72,156.1 L70.8,157.1 L69.6,158.3 L68.3,159.2 L67,160.3 L65.8,161.4 L64.5,162.4 L64.6,160.6 L64.8,158.8 L64.9,157 L65,155.3 L65.2,153.5 L65.3,151.7 L65.5,149.9 L65.6,148.1 L66.9,147.1 L68.2,146.2 L69.4,145.2 L70.7,144.3 L71.2,145.8 L72.1,147.2 L73,148.6 L74.1,149.9 L75.4,151 z" fill="#FFFFFF"/>
        <path d="M76.9,151.7 L75.7,152.9 L74.4,153.8 L73.2,155 L72,156.1 L70.8,157.1 L69.6,158.3 L68.3,159.2 L67,160.3 L65.8,161.4 L64.5,162.4 L64.6,160.6 L64.8,158.8 L64.9,157 L65,155.3 L65.2,153.5 L65.3,151.7 L65.5,149.9 L65.6,148.1 L66.9,147.1 L68.2,146.2 L69.4,145.2 L70.7,144.3 L71.2,145.8 L72.1,147.2 L73,148.6 L74.1,149.9 L75.4,151 z" fill-opacity="0" stroke="#000000" stroke-width="2" stroke-linecap="round" stroke-linejoin="round" stroke-miterlimit="10"/>
      </g>
      <g>
        <path d="M78.5,152 L79.7,153.1 L81,154.1 L82.4,155.2 L83.7,156.2 L85.1,157.2 L86.3,158.3 L87.6,159.4 L88.8,160.6 L90.1,161.8 L90.1,160 L90.2,158.2 L90.3,156.5 L90.4,154.7 L90.5,153 L90.6,151.2 L90.7,149.4 L90.7,147.6 L89.4,146.5 L88.1,145.4 L86.8,144.3 L85.5,143.1 L85,144.7 L84.3,146.3 L83.4,147.7 L82.5,149.1 L81.4,150.4 L79.9,151.3 z" fill="#FFFFFF"/>
        <path d="M78.5,152 L79.7,153.1 L81,154.1 L82.4,155.2 L83.7,156.2 L85.1,157.2 L86.3,158.3 L87.6,159.4 L88.8,160.6 L90.1,161.8 L90.1,160 L90.2,158.2 L90.3,156.5 L90.4,154.7 L90.5,153 L90.6,151.2 L90.7,149.4 L90.7,147.6 L89.4,146.5 L88.1,145.4 L86.8,144.3 L85.5,143.1 L85,144.7 L84.3,146.3 L83.4,147.7 L82.5,149.1 L81.4,150.4 L79.9,151.3 z" fill-opacity="0" stroke="#000000" stroke-width="2" stroke-linecap="round" stroke-linejoin="round" stroke-miterlimit="10"/>
      </g>
      <g>
        <path d="M94.4,105.8 C94.4,105.8 94.7,92.5 90.5,84.6 C90.5,84.6 93.4,81.6 91.7,73.8 C91.7,73.8 90.6,75.1 87.8,75.7 C87.8,75.7 88.9,73.2 88.3,70 C88.3,70 85.4,73.2 83.7,73.4 C83.7,73.4 84.6,70.4 83.8,69.4 C83.8,69.4 81.4,71.2 77.8,72.6 C74.2,74 59.8,72.6 50.7,74.7 C38.5,77.7 37,89.2 37,90.1 C37,90.1 29.8,92.1 33.4,104 C37.8,118.3 52.2,131.1 52.2,131.1 L94.4,105.8 z" fill="#B48A60"/>
        <path d="M94.4,105.8 C94.4,105.8 94.7,92.5 90.5,84.6 C90.5,84.6 93.4,81.6 91.7,73.8 C91.7,73.8 90.6,75.1 87.8,75.7 C87.8,75.7 88.9,73.2 88.3,70 C88.3,70 85.4,73.2 83.7,73.4 C83.7,73.4 84.6,70.4 83.8,69.4 C83.8,69.4 81.4,71.2 77.8,72.6 C74.2,74 59.8,72.6 50.7,74.7 C38.5,77.7 37,89.2 37,90.1 C37,90.1 29.8,92.1 33.4,104 C37.8,118.3 52.2,131.1 52.2,131.1 L94.4,105.8 z" fill-opacity="0" stroke="#000000" stroke-width="2" stroke-linecap="round" stroke-linejoin="round" stroke-miterlimit="10"/>
      </g>
      <g>
        <path d="M94.3,103 C96.7,101.7 100,102.3 100.3,107.2 C100.6,113.3 95,116.1 94,116.5 C94.8,113.4 95.5,109.9 94.1,103 L94.3,103 z" fill="#FDCDA5"/>
        <path d="M94.3,103 C96.7,101.7 100,102.3 100.3,107.2 C100.6,113.3 95,116.1 94,116.5 C94.8,113.4 95.5,109.9 94.1,103 L94.3,103 z" fill-opacity="0" stroke="#000000" stroke-width="2" stroke-linecap="round" stroke-linejoin="round" stroke-miterlimit="10"/>
      </g>
      <g>
        <path d="M67.3,143.4 C62.1,141.2 56.9,137 52.1,126.6 L46.9,113.5 C49.2,107 43.5,99 45.5,99.5 C47.4,100 57.3,98.9 57.3,98.9 C53.6,98.9 47.5,96.5 47.5,96.5 C53,96.5 66.5,91 66.5,91 L51.4,92.5 C61.8,82.2 82,84.5 82,84.5 C82,84.5 86.9,84.9 90.3,92.4 C97.9,109.4 106.9,136.5 85.8,143.8 C85.8,143.7 75.4,146.8 67.3,143.4 z" fill="#FDCDA5"/>
        <path d="M67.3,143.4 C62.1,141.2 56.9,137 52.1,126.6 L46.9,113.5 C49.2,107 43.5,99 45.5,99.5 C47.4,100 57.3,98.9 57.3,98.9 C53.6,98.9 47.5,96.5 47.5,96.5 C53,96.5 66.5,91 66.5,91 L51.4,92.5 C61.8,82.2 82,84.5 82,84.5 C82,84.5 86.9,84.9 90.3,92.4 C97.9,109.4 106.9,136.5 85.8,143.8 C85.8,143.7 75.4,146.8 67.3,143.4 z" fill-opacity="0" stroke="#000000" stroke-width="2" stroke-linecap="round" stroke-linejoin="round" stroke-miterlimit="10"/>
      </g>
      <g>
        <path d="M44.8,120.9 C41.8,121.5 39.4,124.5 42.8,128.9 C46.9,134.3 53.8,132.6 54.9,132.3 C52,130.2 49.7,127.3 45.9,120.5 L44.8,120.9 z" fill="#FDCDA5"/>
        <path d="M44.8,120.9 C41.8,121.5 39.4,124.5 42.8,128.9 C46.9,134.3 53.8,132.6 54.9,132.3 C52,130.2 49.7,127.3 45.9,120.5 L44.8,120.9 z" fill-opacity="0" stroke="#000000" stroke-width="2" stroke-linecap="round" stroke-linejoin="round" stroke-miterlimit="10"/>
      </g>
      <path d="M72,133.9 C72,133.9 79.6,129.5 84.8,132.6" fill-opacity="0" stroke="#000000" stroke-width="2" stroke-linecap="round" stroke-linejoin="round"/>
      <g>
        <g>
          <path d="M65.7,144.9 C65.7,144.9 67.6,142.5 71.1,144.7 C71.1,144.7 72.3,146.1 72.8,147.5 C73.1,148.3 75,149.2 76.9,147.7 C78.8,146.2 81.7,143.8 83.1,143.4 C84.5,143 85.2,143.5 85.7,144.4 C86.4,145.8 84.6,147.8 83.6,148.6 C83.6,148.6 84.4,148.2 85,149.7 C85.6,151.2 84.6,152.4 84.6,152.4 C84.6,152.4 85.7,152.6 85.9,154.3 C86.1,156 85.3,156.2 85.3,156.2 C85.3,156.2 86.4,157 85.3,158.4 C84.2,159.7 77.2,164.6 77.3,167.2 L75.1,169.1 L67.6,167.6 C67.6,167.6 68.4,165.8 67.5,163.7 C66.4,161 67,158.1 68.3,154.8 C68.3,154.8 68.8,153.3 69,152.3 C69.2,151.4 69.2,148 68.1,147.4 C67.1,146.9 64.4,145.5 65.7,144.9 z" fill="#FDCDA5"/>
          <path d="M65.7,144.9 C65.7,144.9 67.6,142.5 71.1,144.7 C71.1,144.7 72.3,146.1 72.8,147.5 C73.1,148.3 75,149.2 76.9,147.7 C78.8,146.2 81.7,143.8 83.1,143.4 C84.5,143 85.2,143.5 85.7,144.4 C86.4,145.8 84.6,147.8 83.6,148.6 C83.6,148.6 84.4,148.2 85,149.7 C85.6,151.2 84.6,152.4 84.6,152.4 C84.6,152.4 85.7,152.6 85.9,154.3 C86.1,156 85.3,156.2 85.3,156.2 C85.3,156.2 86.4,157 85.3,158.4 C84.2,159.7 77.2,164.6 77.3,167.2 L75.1,169.1 L67.6,167.6 C67.6,167.6 68.4,165.8 67.5,163.7 C66.4,161 67,158.1 68.3,154.8 C68.3,154.8 68.8,153.3 69,152.3 C69.2,151.4 69.2,148 68.1,147.4 C67.1,146.9 64.4,145.5 65.7,144.9 z" fill-opacity="0" stroke="#000000" stroke-width="2" stroke-linecap="round" stroke-linejoin="round" stroke-miterlimit="10"/>
        </g>
        <g>
          <path d="M83.6,148.6 L81.7,150.3" fill="#FFFFFF"/>
          <path d="M83.6,148.6 L81.7,150.3" fill-opacity="0" stroke="#000000" stroke-width="2" stroke-linecap="round" stroke-linejoin="round"/>
        </g>
        <g>
          <path d="M84.6,152.4 L83.2,153.6" fill="#FFFFFF"/>
          <path d="M84.6,152.4 L83.2,153.6" fill-opacity="0" stroke="#000000" stroke-width="2" stroke-linecap="round" stroke-linejoin="round"/>
        </g>
        <g>
          <path d="M85.1,156.2 L83.9,156.7" fill="#FFFFFF"/>
          <path d="M85.1,156.2 L83.9,156.7" fill-opacity="0" stroke="#000000" stroke-width="2" stroke-linecap="round" stroke-linejoin="round"/>
        </g>
      </g>
      <g>
        <g>
          <path d="M62.6,201.3 C60.6,204.1 56.1,201.5 54.1,200.6 C52.2,199.7 49.9,201.5 49.9,201.5 L48.2,202.7 C48.2,202.7 47.2,203.7 46.3,202.9 C45.4,202.1 45.7,201.6 45.7,201.6 C45.7,201.6 44.7,202.4 43.9,201.9 C43.1,201.3 43.4,200.7 43.4,200.7 C42.6,201.2 42.1,201.6 41.2,200.7 C40.4,199.8 40.8,199.5 40.8,199.5 C40.1,200.1 39.3,200 38.7,199.6 C38.1,199.2 38.5,198.4 38.5,198.4 C41.1,194.6 46.5,193.2 46.5,193.2 C51.5,191.4 59,193.8 59,193.8" fill="#FDCDA5"/>
          <path d="M62.6,201.3 C60.6,204.1 56.1,201.5 54.1,200.6 C52.2,199.7 49.9,201.5 49.9,201.5 L48.2,202.7 C48.2,202.7 47.2,203.7 46.3,202.9 C45.4,202.1 45.7,201.6 45.7,201.6 C45.7,201.6 44.7,202.4 43.9,201.9 C43.1,201.3 43.4,200.7 43.4,200.7 C42.6,201.2 42.1,201.6 41.2,200.7 C40.4,199.8 40.8,199.5 40.8,199.5 C40.1,200.1 39.3,200 38.7,199.6 C38.1,199.2 38.5,198.4 38.5,198.4 C41.1,194.6 46.5,193.2 46.5,193.2 C51.5,191.4 59,193.8 59,193.8" fill-opacity="0" stroke="#000000" stroke-width="2" stroke-linecap="round" stroke-linejoin="round" stroke-miterlimit="10"/>
        </g>
        <g>
          <path d="M40.8,199.6 C40.8,199.6 43.8,196.3 46.6,195.5" fill="#FFFFFF"/>
          <path d="M40.8,199.6 C40.8,199.6 43.8,196.3 46.6,195.5" fill-opacity="0" stroke="#000000" stroke-width="2" stroke-linecap="round" stroke-linejoin="round" stroke-miterlimit="10"/>
        </g>
        <g>
          <path d="M43.2,200.8 C43.2,200.8 45.5,197.7 48.5,197" fill="#FFFFFF"/>
          <path d="M43.2,200.8 C43.2,200.8 45.5,197.7 48.5,197" fill-opacity="0" stroke="#000000" stroke-width="2" stroke-linecap="round" stroke-linejoin="round" stroke-miterlimit="10"/>
        </g>
        <g>
          <path d="M45.6,201.6 C45.6,201.6 48.4,198.5 51.4,198.4" fill="#FFFFFF"/>
          <path d="M45.6,201.6 C45.6,201.6 48.4,198.5 51.4,198.4" fill-opacity="0" stroke="#000000" stroke-width="2" stroke-linecap="round" stroke-linejoin="round" stroke-miterlimit="10"/>
        </g>
      </g>
      <g>
        <path d="M103.8,169.1 L104.6,192 C104.6,192 62,193.7 61.2,194 C60.4,194.3 56.9,207.3 56.9,207.3 C56.9,207.3 94.8,209 110.5,205.8" fill="#CCE95D"/>
        <path d="M103.8,169.1 L104.6,192 C104.6,192 62,193.7 61.2,194 C60.4,194.3 56.9,207.3 56.9,207.3 C56.9,207.3 94.8,209 110.5,205.8" fill-opacity="0" stroke="#000000" stroke-width="2" stroke-linecap="round" stroke-linejoin="round"/>
      </g>
      <g>
        <path d="M58.6,206.8 L77.7,168.9 L65.8,163.7 L44.6,203.8 C44.6,203.8 44,209.1 48.9,211 C53.8,213 57.3,210.4 58.6,206.8 z" fill="#CCE95D"/>
        <path d="M58.6,206.8 L77.7,168.9 L65.8,163.7 L44.6,203.8 C44.6,203.8 44,209.1 48.9,211 C53.8,213 57.3,210.4 58.6,206.8 z" fill-opacity="0" stroke="#000000" stroke-width="2" stroke-linecap="round" stroke-linejoin="round"/>
      </g>
      <g>
        <path d="M47.6,69 L47.4,70.1 L46.7,71.1 L45.8,71.7 L44.6,71.9 L43.5,71.7 L42.6,71.1 L41.9,70.1 L41.7,69 L41.9,67.9 L42.6,66.9 L43.5,66.3 L44.6,66.1 L45.8,66.3 L46.7,66.9 L47.4,67.9 z" fill="#FFFFFF"/>
        <path d="M47.6,69 L47.4,70.1 L46.7,71.1 L45.8,71.7 L44.6,71.9 L43.5,71.7 L42.6,71.1 L41.9,70.1 L41.7,69 L41.9,67.9 L42.6,66.9 L43.5,66.3 L44.6,66.1 L45.8,66.3 L46.7,66.9 L47.4,67.9 z" fill-opacity="0" stroke="#000000" stroke-width="1.489" stroke-linecap="round" stroke-linejoin="round" stroke-miterlimit="10"/>
      </g>
      <path d="M82.1,112.4 C82.3,113.2 84.7,113.4 87.5,112.8 C90.3,112.2 92.4,111 92.2,110.2 C92,109.4 89.6,109.2 86.8,109.8 C84.1,110.4 81.9,111.6 82.1,112.4 z" fill="#FBA7A6" opacity="0.7"/>
      <path d="M58.4,119 C58.6,119.8 61,119.9 63.8,119.1 C66.6,118.3 68.6,117 68.4,116.2 C68.2,115.4 65.7,115.3 63,116.1 C60.2,116.9 58.1,118.2 58.4,119 z" fill="#FBA7A6" opacity="0.7"/>
      <path d="M76.9,113.3 C76.7,115.9 81.5,113.2 81.3,115.7 C81.2,117.3 77.6,117.8 76.4,118" fill-opacity="0" stroke="#000000" stroke-width="1.5" stroke-linecap="round" stroke-linejoin="round"/>
      <g>
        <path d="M64.3,112.1 C64.4,112.3 64.5,112.5 64.5,112.7 C64.9,114.2 64.5,115.6 63.5,115.8 C62.6,116 61.5,115.1 61.1,113.6 C61,113.4 61,113.2 61,113" fill-opacity="0" stroke="#000000" stroke-width="2" stroke-linecap="round" stroke-linejoin="round" stroke-miterlimit="10"/>
        <path d="M86.1,105.9 C86.2,106.1 86.3,106.3 86.4,106.5 C86.9,107.9 86.6,109.3 85.7,109.7 C84.8,110 83.6,109.2 83.1,107.8 C83,107.6 83,107.4 82.9,107.2" fill-opacity="0" stroke="#000000" stroke-width="2" stroke-linecap="round" stroke-linejoin="round" stroke-miterlimit="10"/>
      </g>
      <path d="M44.1,89.8 C44.1,89.8 48.2,80.9 59.3,79.9" fill-opacity="0" stroke="#000000" stroke-width="2" stroke-linecap="round" stroke-linejoin="round" stroke-miterlimit="10"/>
      <path d="M40.3,89 C40.3,89 41.3,84.1 45.1,82" fill-opacity="0" stroke="#000000" stroke-width="2" stroke-linecap="round" stroke-linejoin="round" stroke-miterlimit="10"/>
      <path d="M39.3,96 C39.3,96 35.4,103.5 42.5,111.6" fill-opacity="0" stroke="#000000" stroke-width="2" stroke-linecap="round" stroke-linejoin="round" stroke-miterlimit="10"/>
      <path d="M21.7,16.5 C22.9,15.2 25.5,13.4 28.7,12.5 C35.6,10.5 39.3,13.8 40.5,17.7 C41.6,21.5 40.1,24.8 38.9,27.6 C37.4,31.2 37.9,33 38.5,35.3 L31.8,37.2 L31.2,35.4 C30.5,32.8 30.7,30.2 31.9,27.1 C32.8,24.7 33.4,22.9 32.9,21.2 C32.4,19.6 30.9,18.7 28.7,19.3 L28.5,19.4 C27.1,19.8 25.7,20.7 24.8,21.8 L21.7,16.5 z M32.7,44.5 C31.9,41.8 33.3,39.3 35.8,38.6 C38.4,37.8 40.8,39.2 41.7,41.9 C42.5,44.6 41.3,47 38.6,47.8 C35.8,48.6 33.4,47.1 32.7,44.5 z" fill="#FFDB00"/>
    </g>
  </g>
</svg>
